<svg width="28" height="38" viewBox="0 0 28 38" fill="none" xmlns="http://www.w3.org/2000/svg">
<g clip-path="url(#clip0_288_140)" filter="url(#filter0_d_288_140)">
<path d="M9.00095 30C11.7604 30 14 27.76 14 25V20H9.00095C6.2415 20 4.00195 22.24 4.00195 25C4.00195 27.76 6.2415 30 9.00095 30Z" fill="#0ACF83"/>
<path d="M4.00195 15C4.00195 12.24 6.2415 10 9.00095 10H14V20H9.00095C6.2415 20 4.00195 17.76 4.00195 15Z" fill="#A259FF"/>
<path d="M4.01001 5C4.01001 2.24 6.24956 0 9.00901 0H14.008V10H9.00901C6.24956 10 4.01001 7.76 4.01001 5Z" fill="#F24E1E"/>
<path d="M14 0H18.999C21.7584 0 23.998 2.24 23.998 5C23.998 7.76 21.7584 10 18.999 10H14V0Z" fill="#FF7262"/>
<path d="M23.998 15C23.998 17.76 21.7584 20 18.999 20C16.2396 20 14 17.76 14 15C14 12.24 16.2396 10 18.999 10C21.7584 10 23.998 12.24 23.998 15Z" fill="#1ABCFE"/>
</g>
<defs>
<filter id="filter0_d_288_140" x="0" y="0" width="28" height="38" filterUnits="userSpaceOnUse" color-interpolation-filters="sRGB">
<feFlood flood-opacity="0" result="BackgroundImageFix"/>
<feColorMatrix in="SourceAlpha" type="matrix" values="0 0 0 0 0 0 0 0 0 0 0 0 0 0 0 0 0 0 127 0" result="hardAlpha"/>
<feOffset dy="4"/>
<feGaussianBlur stdDeviation="2"/>
<feComposite in2="hardAlpha" operator="out"/>
<feColorMatrix type="matrix" values="0 0 0 0 0 0 0 0 0 0 0 0 0 0 0 0 0 0 0.25 0"/>
<feBlend mode="normal" in2="BackgroundImageFix" result="effect1_dropShadow_288_140"/>
<feBlend mode="normal" in="SourceGraphic" in2="effect1_dropShadow_288_140" result="shape"/>
</filter>
<clipPath id="clip0_288_140">
<rect width="20" height="30" fill="white" transform="translate(4)"/>
</clipPath>
</defs>
</svg>
